<svg width="128" height="128" viewBox="0 0 128 128" fill="none" xmlns="http://www.w3.org/2000/svg">
  <rect width="128" height="128" rx="64" fill="#121826"/>
  <circle cx="64" cy="51" r="26" fill="#F2C9A0"/>
  <path d="M38 47C38 31 50 20 64 20C78 20 90 31 90 47V53H38V47Z" fill="#1F2937"/>
  <path d="M38 68C38 52 50 43 64 43C78 43 90 52 90 68V80C90 96 78 108 64 108C50 108 38 96 38 80V68Z" fill="#F2C9A0"/>
  <path d="M43 74C43 61 52 55 64 55C76 55 85 61 85 74V82C85 95 76 103 64 103C52 103 43 95 43 82V74Z" fill="#2B3548"/>
  <circle cx="54" cy="67" r="3" fill="#111827"/>
  <circle cx="74" cy="67" r="3" fill="#111827"/>
  <path d="M58 80C60 82 62 83 64 83C66 83 68 82 70 80" stroke="#111827" stroke-width="2.5" stroke-linecap="round"/>
  <path d="M36 116C40 100 50 94 64 94C78 94 88 100 92 116H36Z" fill="#4F8EF7"/>
  <path d="M52 36C56 32 60 30 64 30C68 30 72 32 76 36" stroke="#111827" stroke-width="3" stroke-linecap="round"/>
</svg>
